<svg class="piq-svg piq-td piq-td-mini" xmlns="http://www.w3.org/2000/svg" viewBox="0 0 69 141" role="img" aria-label="Mini-map"><style>
.piq-svg{font-family:"Barlow Semi Condensed", "Barlow", system-ui, sans-serif}
.piq-backdrop{fill:#1E2B38}
.piq-surround{fill:#3B6D57}
.piq-surface{fill:#2D5F8E}
.piq-kitchen{fill:#27527D}
.piq-line{fill:#EEF3EF;stroke:#EEF3EF;stroke-width:.6}
.piq-td-line{stroke:#EEF3EF;fill:none}
.piq-net-mesh{fill:rgba(12, 18, 24, 0.42)}
.piq-net-tape{fill:#F4F6F4}
.piq-net-post{stroke:#12171D;stroke-linecap:round}
.piq-td-net{stroke:#F4F6F4;stroke-linecap:round}
.piq-player-us{fill:#F3F2EC;stroke:#1B2A3A;stroke-width:.8}
.piq-player-them{fill:#E8703E;stroke:#5E2410;stroke-width:.8}
.piq-arm-us{stroke:#F3F2EC;fill:none}
.piq-arm-them{stroke:#E8703E;fill:none}
.piq-label-us{fill:#1B2A3A;font-weight:600;font-size:12px}
.piq-label-them{fill:#3B1405;font-weight:600;font-size:12px}
.piq-paddle{fill:#12171D}
.piq-ball{fill:#D9F03E;stroke:#3D4806;stroke-width:.8}
.piq-ball-shadow{fill:rgba(0, 0, 0, 0.38)}
.piq-stalk{stroke:rgba(255, 255, 255, 0.8);stroke-width:1.2;stroke-dasharray:3 3;fill:none}
.piq-tick{stroke:#FFFFFF;stroke-width:2.4;stroke-linecap:round}
.piq-path{stroke:#F5C443;fill:none;stroke-linecap:round}
.piq-path-far{stroke-dasharray:5 4}
.piq-answer{stroke:#5FE3A8;fill:none;stroke-width:3;stroke-linecap:round}
.piq-answer-zone{fill:rgba(95, 227, 168, 0.3);stroke:#5FE3A8;stroke-width:1.2;stroke-dasharray:4 3}
.piq-arrowhead{fill:#5FE3A8}
.piq-fov{fill:rgba(255, 255, 255, 0.2)}
.piq-cam{fill:#FFFFFF;stroke:#1E2B38;stroke-width:1}
.piq-annot{fill:#EEF3EF;font-weight:600;font-size:11px}
.piq-annot-line{stroke:#EEF3EF;fill:none}
.piq-reveal{opacity:0;transition:opacity .25s ease}
.is-revealed .piq-reveal,.piq-reveal.is-on{opacity:1}
@media (prefers-reduced-motion: reduce){.piq-reveal{transition:none}}
</style><defs><marker id="piq-ah-td4" viewBox="0 0 10 10" refX="7" refY="5" markerWidth="4" markerHeight="4" orient="auto-start-reverse"><path class="piq-arrowhead" d="M0,0 L10,5 L0,10 z"/></marker></defs><rect class="piq-surround" x="0" y="0" width="69" height="141" rx="4"/><rect class="piq-surface" x="4.5" y="4.5" width="60" height="132"/><rect class="piq-kitchen" x="4.5" y="49.5" width="60" height="42"/><rect class="piq-td-line" x="4.5" y="4.5" width="60" height="132" stroke-width="1"/><line class="piq-td-line" x1="4.5" y1="91.5" x2="64.5" y2="91.5" stroke-width="1"/><line class="piq-td-line" x1="4.5" y1="49.5" x2="64.5" y2="49.5" stroke-width="1"/><line class="piq-td-line" x1="34.5" y1="136.5" x2="34.5" y2="91.5" stroke-width="1"/><line class="piq-td-line" x1="34.5" y1="49.5" x2="34.5" y2="4.5" stroke-width="1"/><line class="piq-td-net" x1="1.5" y1="70.5" x2="67.5" y2="70.5" stroke-width="1.6"/><polygon class="piq-fov" points="12.6,102.9 -5.3,71.7 45.2,87.6"/><polyline class="piq-path piq-path-far" stroke-width="1" points="18.9,50.7 19,52.4 19.1,54 19.2,55.6 19.3,57.3 19.4,59 19.5,60.6 19.6,62.3 19.8,63.9 19.9,65.6 20,67.2 20.1,68.9 20.2,70.5"/><polyline class="piq-path" stroke-width="1.5" points="20.2,70.5 20.3,72 20.4,73.4 20.5,74.9 20.6,76.3 20.6,77.8 20.7,79.2 20.8,80.7 20.9,82.1 21,83.6 21.1,85 21.2,86.5 21.3,87.9"/><circle class="piq-player-us" cx="19.5" cy="94.8" r="3"/><circle class="piq-player-us" cx="49.5" cy="94.8" r="3"/><circle class="piq-player-them" cx="19.5" cy="46.2" r="3"/><circle class="piq-player-them" cx="49.5" cy="46.2" r="3"/><circle class="piq-ball" cx="21.3" cy="87.9" r="2"/><circle class="piq-cam" cx="12.6" cy="102.9" r="2.2"/><g class="piq-reveal"><ellipse class="piq-answer-zone" cx="20.7" cy="59.7" rx="5.4" ry="3.9"/><line class="piq-answer" x1="21.3" y1="87.9" x2="20.4" y2="59.1" stroke-width="1.5" marker-end="url(#piq-ah-td4)"/></g></svg>